<svg xmlns="http://www.w3.org/2000/svg" width="1280" height="633" style="cursor: move;"><g transform="translate(413.87514927153654,168.31176409686583) scale(0.5)"><path class="link" marker-end="" d="M331,192.5, 676,67.5" style="stroke-width: 1.07; stroke-opacity: 0.66; stroke: rgb(80, 80, 80);"></path><path class="link" marker-end="" d="M331,192.5, 676,133.5" style="stroke-width: 1.07; stroke-opacity: 0.66; stroke: rgb(80, 80, 80);"></path><path class="link" marker-end="" d="M331,192.5, 676,199.5" style="stroke-width: 1.07; stroke-opacity: 0.66; stroke: rgb(80, 80, 80);"></path><path class="link" marker-end="" d="M331,192.5, 676,265.5" style="stroke-width: 1.07; stroke-opacity: 0.66; stroke: rgb(80, 80, 80);"></path><path class="link" marker-end="" d="M331,192.5, 676,331.5" style="stroke-width: 1.07; stroke-opacity: 0.66; stroke: rgb(80, 80, 80);"></path><path class="link" marker-end="" d="M331,192.5, 676,397.5" style="stroke-width: 1.07; stroke-opacity: 0.66; stroke: rgb(80, 80, 80);"></path><path class="link" marker-end="" d="M331,192.5, 676,463.5" style="stroke-width: 1.07; stroke-opacity: 0.66; stroke: rgb(80, 80, 80);"></path><path class="link" marker-end="" d="M331,192.5, 676,529.5" style="stroke-width: 1.07; stroke-opacity: 0.66; stroke: rgb(80, 80, 80);"></path><path class="link" marker-end="" d="M331,245.5, 676,67.5" style="stroke-width: 1.07; stroke-opacity: 0.66; stroke: rgb(80, 80, 80);"></path><path class="link" marker-end="" d="M331,245.5, 676,133.5" style="stroke-width: 1.07; stroke-opacity: 0.66; stroke: rgb(80, 80, 80);"></path><path class="link" marker-end="" d="M331,245.5, 676,199.5" style="stroke-width: 1.07; stroke-opacity: 0.66; stroke: rgb(80, 80, 80);"></path><path class="link" marker-end="" d="M331,245.5, 676,265.5" style="stroke-width: 1.07; stroke-opacity: 0.66; stroke: rgb(80, 80, 80);"></path><path class="link" marker-end="" d="M331,245.5, 676,331.5" style="stroke-width: 1.07; stroke-opacity: 0.66; stroke: rgb(80, 80, 80);"></path><path class="link" marker-end="" d="M331,245.5, 676,397.5" style="stroke-width: 1.07; stroke-opacity: 0.66; stroke: rgb(80, 80, 80);"></path><path class="link" marker-end="" d="M331,245.5, 676,463.5" style="stroke-width: 1.07; stroke-opacity: 0.66; stroke: rgb(80, 80, 80);"></path><path class="link" marker-end="" d="M331,245.5, 676,529.5" style="stroke-width: 1.07; stroke-opacity: 0.66; stroke: rgb(80, 80, 80);"></path><path class="link" marker-end="" d="M331,298.5, 676,67.5" style="stroke-width: 1.07; stroke-opacity: 0.66; stroke: rgb(80, 80, 80);"></path><path class="link" marker-end="" d="M331,298.5, 676,133.5" style="stroke-width: 1.07; stroke-opacity: 0.66; stroke: rgb(80, 80, 80);"></path><path class="link" marker-end="" d="M331,298.5, 676,199.5" style="stroke-width: 1.07; stroke-opacity: 0.66; stroke: rgb(80, 80, 80);"></path><path class="link" marker-end="" d="M331,298.5, 676,265.5" style="stroke-width: 1.07; stroke-opacity: 0.66; stroke: rgb(80, 80, 80);"></path><path class="link" marker-end="" d="M331,298.5, 676,331.5" style="stroke-width: 1.07; stroke-opacity: 0.66; stroke: rgb(80, 80, 80);"></path><path class="link" marker-end="" d="M331,298.5, 676,397.5" style="stroke-width: 1.07; stroke-opacity: 0.66; stroke: rgb(80, 80, 80);"></path><path class="link" marker-end="" d="M331,298.5, 676,463.5" style="stroke-width: 1.07; stroke-opacity: 0.66; stroke: rgb(80, 80, 80);"></path><path class="link" marker-end="" d="M331,298.5, 676,529.5" style="stroke-width: 1.07; stroke-opacity: 0.66; stroke: rgb(80, 80, 80);"></path><path class="link" marker-end="" d="M331,351.5, 676,67.5" style="stroke-width: 1.07; stroke-opacity: 0.66; stroke: rgb(80, 80, 80);"></path><path class="link" marker-end="" d="M331,351.5, 676,133.5" style="stroke-width: 1.07; stroke-opacity: 0.66; stroke: rgb(80, 80, 80);"></path><path class="link" marker-end="" d="M331,351.5, 676,199.5" style="stroke-width: 1.07; stroke-opacity: 0.66; stroke: rgb(80, 80, 80);"></path><path class="link" marker-end="" d="M331,351.5, 676,265.5" style="stroke-width: 1.07; stroke-opacity: 0.66; stroke: rgb(80, 80, 80);"></path><path class="link" marker-end="" d="M331,351.5, 676,331.5" style="stroke-width: 1.07; stroke-opacity: 0.66; stroke: rgb(80, 80, 80);"></path><path class="link" marker-end="" d="M331,351.5, 676,397.5" style="stroke-width: 1.07; stroke-opacity: 0.66; stroke: rgb(80, 80, 80);"></path><path class="link" marker-end="" d="M331,351.5, 676,463.5" style="stroke-width: 1.07; stroke-opacity: 0.66; stroke: rgb(80, 80, 80);"></path><path class="link" marker-end="" d="M331,351.5, 676,529.5" style="stroke-width: 1.07; stroke-opacity: 0.66; stroke: rgb(80, 80, 80);"></path><path class="link" marker-end="" d="M331,404.5, 676,67.5" style="stroke-width: 1.07; stroke-opacity: 0.66; stroke: rgb(80, 80, 80);"></path><path class="link" marker-end="" d="M331,404.5, 676,133.5" style="stroke-width: 1.07; stroke-opacity: 0.66; stroke: rgb(80, 80, 80);"></path><path class="link" marker-end="" d="M331,404.5, 676,199.5" style="stroke-width: 1.07; stroke-opacity: 0.66; stroke: rgb(80, 80, 80);"></path><path class="link" marker-end="" d="M331,404.5, 676,265.5" style="stroke-width: 1.07; stroke-opacity: 0.66; stroke: rgb(80, 80, 80);"></path><path class="link" marker-end="" d="M331,404.5, 676,331.5" style="stroke-width: 1.07; stroke-opacity: 0.66; stroke: rgb(80, 80, 80);"></path><path class="link" marker-end="" d="M331,404.5, 676,397.5" style="stroke-width: 1.07; stroke-opacity: 0.66; stroke: rgb(80, 80, 80);"></path><path class="link" marker-end="" d="M331,404.5, 676,463.5" style="stroke-width: 1.07; stroke-opacity: 0.66; stroke: rgb(80, 80, 80);"></path><path class="link" marker-end="" d="M331,404.5, 676,529.5" style="stroke-width: 1.07; stroke-opacity: 0.66; stroke: rgb(80, 80, 80);"></path><path class="link" marker-end="" d="M676,1.5, 1021,241.5" style="stroke-width: 1.07; stroke-opacity: 0.66; stroke: rgb(80, 80, 80);"></path><path class="link" marker-end="" d="M676,1.5, 1021,298.5" style="stroke-width: 1.07; stroke-opacity: 0.66; stroke: rgb(80, 80, 80);"></path><path class="link" marker-end="" d="M676,1.5, 1021,355.5" style="stroke-width: 1.07; stroke-opacity: 0.66; stroke: rgb(80, 80, 80);"></path><path class="link" marker-end="" d="M676,1.5, 1021,412.5" style="stroke-width: 1.07; stroke-opacity: 0.66; stroke: rgb(80, 80, 80);"></path><path class="link" marker-end="" d="M676,67.5, 1021,241.5" style="stroke-width: 1.07; stroke-opacity: 0.66; stroke: rgb(80, 80, 80);"></path><path class="link" marker-end="" d="M676,67.5, 1021,298.5" style="stroke-width: 1.07; stroke-opacity: 0.66; stroke: rgb(80, 80, 80);"></path><path class="link" marker-end="" d="M676,67.5, 1021,355.5" style="stroke-width: 1.07; stroke-opacity: 0.66; stroke: rgb(80, 80, 80);"></path><path class="link" marker-end="" d="M676,67.5, 1021,412.5" style="stroke-width: 1.07; stroke-opacity: 0.66; stroke: rgb(80, 80, 80);"></path><path class="link" marker-end="" d="M676,133.5, 1021,241.5" style="stroke-width: 1.07; stroke-opacity: 0.66; stroke: rgb(80, 80, 80);"></path><path class="link" marker-end="" d="M676,133.5, 1021,298.5" style="stroke-width: 1.07; stroke-opacity: 0.66; stroke: rgb(80, 80, 80);"></path><path class="link" marker-end="" d="M676,133.5, 1021,355.5" style="stroke-width: 1.07; stroke-opacity: 0.66; stroke: rgb(80, 80, 80);"></path><path class="link" marker-end="" d="M676,133.5, 1021,412.5" style="stroke-width: 1.07; stroke-opacity: 0.66; stroke: rgb(80, 80, 80);"></path><path class="link" marker-end="" d="M676,199.5, 1021,241.5" style="stroke-width: 1.07; stroke-opacity: 0.66; stroke: rgb(80, 80, 80);"></path><path class="link" marker-end="" d="M676,199.5, 1021,298.5" style="stroke-width: 1.07; stroke-opacity: 0.66; stroke: rgb(80, 80, 80);"></path><path class="link" marker-end="" d="M676,199.5, 1021,355.5" style="stroke-width: 1.07; stroke-opacity: 0.66; stroke: rgb(80, 80, 80);"></path><path class="link" marker-end="" d="M676,199.5, 1021,412.5" style="stroke-width: 1.07; stroke-opacity: 0.66; stroke: rgb(80, 80, 80);"></path><path class="link" marker-end="" d="M676,265.5, 1021,241.5" style="stroke-width: 1.07; stroke-opacity: 0.66; stroke: rgb(80, 80, 80);"></path><path class="link" marker-end="" d="M676,265.5, 1021,298.5" style="stroke-width: 1.07; stroke-opacity: 0.66; stroke: rgb(80, 80, 80);"></path><path class="link" marker-end="" d="M676,265.5, 1021,355.5" style="stroke-width: 1.07; stroke-opacity: 0.66; stroke: rgb(80, 80, 80);"></path><path class="link" marker-end="" d="M676,265.5, 1021,412.5" style="stroke-width: 1.07; stroke-opacity: 0.66; stroke: rgb(80, 80, 80);"></path><path class="link" marker-end="" d="M676,331.5, 1021,241.5" style="stroke-width: 1.07; stroke-opacity: 0.66; stroke: rgb(80, 80, 80);"></path><path class="link" marker-end="" d="M676,331.5, 1021,298.5" style="stroke-width: 1.07; stroke-opacity: 0.66; stroke: rgb(80, 80, 80);"></path><path class="link" marker-end="" d="M676,331.5, 1021,355.5" style="stroke-width: 1.07; stroke-opacity: 0.66; stroke: rgb(80, 80, 80);"></path><path class="link" marker-end="" d="M676,331.5, 1021,412.5" style="stroke-width: 1.07; stroke-opacity: 0.66; stroke: rgb(80, 80, 80);"></path><path class="link" marker-end="" d="M676,397.5, 1021,241.5" style="stroke-width: 1.07; stroke-opacity: 0.66; stroke: rgb(80, 80, 80);"></path><path class="link" marker-end="" d="M676,397.5, 1021,298.5" style="stroke-width: 1.07; stroke-opacity: 0.66; stroke: rgb(80, 80, 80);"></path><path class="link" marker-end="" d="M676,397.5, 1021,355.5" style="stroke-width: 1.07; stroke-opacity: 0.66; stroke: rgb(80, 80, 80);"></path><path class="link" marker-end="" d="M676,397.5, 1021,412.5" style="stroke-width: 1.07; stroke-opacity: 0.66; stroke: rgb(80, 80, 80);"></path><path class="link" marker-end="" d="M676,463.5, 1021,241.5" style="stroke-width: 1.07; stroke-opacity: 0.66; stroke: rgb(80, 80, 80);"></path><path class="link" marker-end="" d="M676,463.5, 1021,298.5" style="stroke-width: 1.07; stroke-opacity: 0.66; stroke: rgb(80, 80, 80);"></path><path class="link" marker-end="" d="M676,463.5, 1021,355.5" style="stroke-width: 1.07; stroke-opacity: 0.66; stroke: rgb(80, 80, 80);"></path><path class="link" marker-end="" d="M676,463.5, 1021,412.5" style="stroke-width: 1.07; stroke-opacity: 0.66; stroke: rgb(80, 80, 80);"></path><path class="link" marker-end="" d="M676,529.5, 1021,241.5" style="stroke-width: 1.07; stroke-opacity: 0.66; stroke: rgb(80, 80, 80);"></path><path class="link" marker-end="" d="M676,529.5, 1021,298.5" style="stroke-width: 1.07; stroke-opacity: 0.66; stroke: rgb(80, 80, 80);"></path><path class="link" marker-end="" d="M676,529.5, 1021,355.5" style="stroke-width: 1.07; stroke-opacity: 0.66; stroke: rgb(80, 80, 80);"></path><path class="link" marker-end="" d="M676,529.5, 1021,412.5" style="stroke-width: 1.07; stroke-opacity: 0.66; stroke: rgb(80, 80, 80);"></path><path class="link" marker-end="" d="M331,192.5, 676,595.5" style="stroke-width: 1.07; stroke-opacity: 0.66; stroke: rgb(80, 80, 80);"></path><path class="link" marker-end="" d="M331,245.5, 676,595.5" style="stroke-width: 1.07; stroke-opacity: 0.66; stroke: rgb(80, 80, 80);"></path><path class="link" marker-end="" d="M331,298.5, 676,595.5" style="stroke-width: 1.07; stroke-opacity: 0.66; stroke: rgb(80, 80, 80);"></path><path class="link" marker-end="" d="M331,351.5, 676,595.5" style="stroke-width: 1.07; stroke-opacity: 0.66; stroke: rgb(80, 80, 80);"></path><path class="link" marker-end="" d="M331,404.5, 676,595.5" style="stroke-width: 1.07; stroke-opacity: 0.66; stroke: rgb(80, 80, 80);"></path><path class="link" marker-end="" d="M676,595.5, 1021,241.5" style="stroke-width: 1.07; stroke-opacity: 0.66; stroke: rgb(80, 80, 80);"></path><path class="link" marker-end="" d="M676,595.5, 1021,298.5" style="stroke-width: 1.07; stroke-opacity: 0.66; stroke: rgb(80, 80, 80);"></path><path class="link" marker-end="" d="M676,595.5, 1021,355.5" style="stroke-width: 1.07; stroke-opacity: 0.66; stroke: rgb(80, 80, 80);"></path><path class="link" marker-end="" d="M676,595.5, 1021,412.5" style="stroke-width: 1.07; stroke-opacity: 0.66; stroke: rgb(80, 80, 80);"></path><path class="link" marker-end="" d="M331,192.5, 676,1.5" style="stroke-width: 1.07; stroke-opacity: 0.66; stroke: rgb(80, 80, 80);"></path><path class="link" marker-end="" d="M331,245.5, 676,1.5" style="stroke-width: 1.07; stroke-opacity: 0.66; stroke: rgb(80, 80, 80);"></path><path class="link" marker-end="" d="M331,298.5, 676,1.5" style="stroke-width: 1.07; stroke-opacity: 0.66; stroke: rgb(80, 80, 80);"></path><path class="link" marker-end="" d="M331,351.5, 676,1.5" style="stroke-width: 1.07; stroke-opacity: 0.66; stroke: rgb(80, 80, 80);"></path><path class="link" marker-end="" d="M331,404.5, 676,1.5" style="stroke-width: 1.07; stroke-opacity: 0.66; stroke: rgb(80, 80, 80);"></path><path class="link" marker-end="" d="M676,1.5, 1021,184.5" style="stroke-width: 1.07; stroke-opacity: 0.66; stroke: rgb(80, 80, 80);"></path><path class="link" marker-end="" d="M676,67.5, 1021,184.5" style="stroke-width: 1.07; stroke-opacity: 0.66; stroke: rgb(80, 80, 80);"></path><path class="link" marker-end="" d="M676,133.5, 1021,184.5" style="stroke-width: 1.07; stroke-opacity: 0.66; stroke: rgb(80, 80, 80);"></path><path class="link" marker-end="" d="M676,199.5, 1021,184.5" style="stroke-width: 1.07; stroke-opacity: 0.66; stroke: rgb(80, 80, 80);"></path><path class="link" marker-end="" d="M676,265.5, 1021,184.5" style="stroke-width: 1.07; stroke-opacity: 0.66; stroke: rgb(80, 80, 80);"></path><path class="link" marker-end="" d="M676,331.5, 1021,184.5" style="stroke-width: 1.07; stroke-opacity: 0.66; stroke: rgb(80, 80, 80);"></path><path class="link" marker-end="" d="M676,397.5, 1021,184.5" style="stroke-width: 1.07; stroke-opacity: 0.66; stroke: rgb(80, 80, 80);"></path><path class="link" marker-end="" d="M676,463.5, 1021,184.5" style="stroke-width: 1.07; stroke-opacity: 0.66; stroke: rgb(80, 80, 80);"></path><path class="link" marker-end="" d="M676,529.5, 1021,184.5" style="stroke-width: 1.07; stroke-opacity: 0.66; stroke: rgb(80, 80, 80);"></path><path class="link" marker-end="" d="M676,595.5, 1021,184.5" style="stroke-width: 1.07; stroke-opacity: 0.66; stroke: rgb(80, 80, 80);"></path><circle r="18" class="node" id="0_0" cx="331" cy="192.5" style="fill: rgb(255, 255, 255); stroke: rgb(51, 51, 51);"></circle><circle r="18" class="node" id="0_1" cx="331" cy="245.5" style="fill: rgb(255, 255, 255); stroke: rgb(51, 51, 51);"></circle><circle r="18" class="node" id="0_2" cx="331" cy="298.5" style="fill: rgb(255, 255, 255); stroke: rgb(51, 51, 51);"></circle><circle r="18" class="node" id="0_3" cx="331" cy="351.5" style="fill: rgb(255, 255, 255); stroke: rgb(51, 51, 51);"></circle><circle r="18" class="node" id="0_4" cx="331" cy="404.5" style="fill: rgb(255, 255, 255); stroke: rgb(51, 51, 51);"></circle><circle r="18" class="node" id="1_0" cx="676" cy="1.5" style="fill: rgb(255, 255, 255); stroke: rgb(51, 51, 51);"></circle><circle r="18" class="node" id="1_1" cx="676" cy="67.5" style="fill: rgb(255, 255, 255); stroke: rgb(51, 51, 51);"></circle><circle r="18" class="node" id="1_2" cx="676" cy="133.5" style="fill: rgb(255, 255, 255); stroke: rgb(51, 51, 51);"></circle><circle r="18" class="node" id="1_3" cx="676" cy="199.5" style="fill: rgb(255, 255, 255); stroke: rgb(51, 51, 51);"></circle><circle r="18" class="node" id="1_4" cx="676" cy="265.5" style="fill: rgb(255, 255, 255); stroke: rgb(51, 51, 51);"></circle><circle r="18" class="node" id="1_5" cx="676" cy="331.5" style="fill: rgb(255, 255, 255); stroke: rgb(51, 51, 51);"></circle><circle r="18" class="node" id="1_6" cx="676" cy="397.5" style="fill: rgb(255, 255, 255); stroke: rgb(51, 51, 51);"></circle><circle r="18" class="node" id="1_7" cx="676" cy="463.5" style="fill: rgb(255, 255, 255); stroke: rgb(51, 51, 51);"></circle><circle r="18" class="node" id="1_8" cx="676" cy="529.5" style="fill: rgb(255, 255, 255); stroke: rgb(51, 51, 51);"></circle><circle r="18" class="node" id="1_9" cx="676" cy="595.5" style="fill: rgb(255, 255, 255); stroke: rgb(51, 51, 51);"></circle><circle r="18" class="node" id="2_0" cx="1021" cy="184.5" style="fill: rgb(255, 255, 255); stroke: rgb(51, 51, 51);"></circle><circle r="18" class="node" id="2_1" cx="1021" cy="241.5" style="fill: rgb(255, 255, 255); stroke: rgb(51, 51, 51);"></circle><circle r="18" class="node" id="2_2" cx="1021" cy="298.5" style="fill: rgb(255, 255, 255); stroke: rgb(51, 51, 51);"></circle><circle r="18" class="node" id="2_3" cx="1021" cy="355.5" style="fill: rgb(255, 255, 255); stroke: rgb(51, 51, 51);"></circle><circle r="18" class="node" id="2_4" cx="1021" cy="412.5" style="fill: rgb(255, 255, 255); stroke: rgb(51, 51, 51);"></circle><text class="text" dy=".35em" x="296" y="651.5" style="font-size: 12px;">Input Layer ∈ ℝ⁵</text><text class="text" dy=".35em" x="641" y="651.5" style="font-size: 12px;">Hidden Layer ∈ ℝ¹⁰</text><text class="text" dy=".35em" x="986" y="651.5" style="font-size: 12px;">Output Layer ∈ ℝ⁵</text></g><defs><marker id="arrow" viewBox="0 -5 10 10" markerWidth="7" markerHeight="7" orient="auto" refX="62.4"><path d="M0,-5L10,0L0,5" style="stroke: rgb(80, 80, 80); fill: none;"></path></marker></defs></svg>